<svg width="198" height="60" viewBox="0 0 198 60" fill="none" xmlns="http://www.w3.org/2000/svg">
<path fill-rule="evenodd" clip-rule="evenodd" d="M109.579 31.4494C109.497 27.083 107.524 25.4352 104.44 25.4352C100.863 25.4352 99.3418 27.2475 99.0952 31.4494H109.579ZM93.791 33.3442C93.791 25.4764 97.2446 20.9863 104.399 20.9863C110.484 20.9863 114.39 24.5704 114.39 32.4793C114.39 32.8005 114.383 33.1565 114.369 33.5161C114.338 34.3401 113.66 34.992 112.837 34.992H99.2186C99.4649 40.1817 101.644 41.9946 106.372 41.9946C108.353 41.9946 110.141 41.6926 111.872 41.089C112.477 40.8777 113.123 41.2686 113.214 41.9046L113.542 44.2012C113.608 44.6677 113.347 45.1129 112.913 45.2959C110.932 46.1311 108.489 46.6495 105.756 46.6495C97.4094 46.6495 93.791 42.2413 93.791 33.3442Z" fill="#1A237E"/>
<path fill-rule="evenodd" clip-rule="evenodd" d="M124.487 25.436V39.2354C124.487 41.4184 125.638 42.3244 127.735 42.3244C127.866 42.3244 128.007 42.3197 128.152 42.3102C129.048 42.2536 129.824 42.9277 129.9 43.8239L129.966 44.6092C130.037 45.4521 129.464 46.2121 128.636 46.3756C127.909 46.5192 127.061 46.6085 126.214 46.6085C121.568 46.6085 119.265 43.931 119.265 39.3591V25.436H117.786C116.9 25.436 116.182 24.7161 116.182 23.828V23.0063C116.182 22.1182 116.9 21.3986 117.786 21.3986H119.43L120.172 16.8368C120.292 16.1021 120.89 15.5392 121.629 15.4651L122.682 15.3599C123.648 15.2629 124.487 16.0232 124.487 16.9962V21.3986H128.679C129.566 21.3986 130.284 22.1182 130.284 23.0063V23.828C130.284 24.7161 129.566 25.436 128.679 25.436H124.487Z" fill="#1A237E"/>
<path fill-rule="evenodd" clip-rule="evenodd" d="M150.583 46.1962C149.603 46.1962 148.809 45.4008 148.809 44.4193V30.1309C148.809 27.2475 147.329 25.7234 144.122 25.7234C141.943 25.7234 140.052 26.712 139.188 28.0301V44.5545C139.188 45.4611 138.455 46.1962 137.55 46.1962H135.605C134.701 46.1962 133.967 45.4611 133.967 44.5545V15.7434C133.967 14.7329 134.755 13.8991 135.762 13.8435L137.185 13.7646C138.273 13.705 139.188 14.5728 139.188 15.6648V19.9978L139.106 23.2934L139.23 23.3753C141.08 21.6449 143.423 20.9452 145.767 20.9452C151.029 20.9452 154.072 24.2816 154.072 30.1309V44.4193C154.072 45.4008 153.278 46.1962 152.298 46.1962H150.583Z" fill="#1A237E"/>
<path fill-rule="evenodd" clip-rule="evenodd" d="M173.542 31.4494C173.46 27.083 171.486 25.4352 168.403 25.4352C164.826 25.4352 163.304 27.2475 163.058 31.4494H173.542ZM157.754 33.3442C157.754 25.4764 161.207 20.9863 168.362 20.9863C174.447 20.9863 178.353 24.5704 178.353 32.4793C178.353 32.6347 178.351 32.7982 178.348 32.9664C178.326 34.0921 177.402 34.992 176.278 34.992H163.181C163.428 40.1817 165.607 41.9946 170.335 41.9946C172.155 41.9946 173.812 41.7395 175.412 41.2302C176.243 40.9646 177.117 41.482 177.24 42.3472L177.463 43.9141C177.554 44.549 177.204 45.1678 176.609 45.4051C174.678 46.1759 172.331 46.6495 169.719 46.6495C161.372 46.6495 157.754 42.2413 157.754 33.3442Z" fill="#1A237E"/>
<path fill-rule="evenodd" clip-rule="evenodd" d="M182.322 44.5105V23.1678C182.322 22.2676 183.023 21.5234 183.92 21.4705L184.886 21.4135C185.796 21.3599 186.586 22.0367 186.674 22.9464L186.968 25.972H187.092C188.613 22.759 191.162 21.0293 194.205 21.0293C194.507 21.0293 194.798 21.0397 195.076 21.0603C196.032 21.1297 196.759 21.946 196.699 22.9049L196.589 24.6841C196.528 25.6696 195.663 26.4017 194.682 26.3023C194.416 26.275 194.146 26.2605 193.876 26.2605C190.299 26.2605 187.544 29.0619 187.544 33.7168V44.5105C187.544 45.4424 186.79 46.1977 185.86 46.1977H184.006C183.076 46.1977 182.322 45.4424 182.322 44.5105Z" fill="#1A237E"/>
<path fill-rule="evenodd" clip-rule="evenodd" d="M76.3609 41.0068H74.7906H70.6332H70.3358V18.6537H70.6332H71.6569H76.3609C81.9117 18.6537 86.254 21.9668 86.254 29.9583C86.254 38.5262 81.7058 41.0068 76.3609 41.0068ZM76.402 13.4219H66.4833C65.6416 13.4219 64.959 14.1057 64.959 14.949V17.4232V18.6537V41.0068V41.3792V44.6701C64.959 45.5134 65.6416 46.1965 66.4833 46.1965H76.4844C85.4887 46.1965 91.5488 41.2036 91.5488 29.9995C91.5488 19.2476 85.9822 13.4219 76.402 13.4219Z" fill="#1A237E"/>
<path fill-rule="evenodd" clip-rule="evenodd" d="M25.1183 1.06445C12.0672 1.06445 1.44922 11.7023 1.44922 24.7783C1.44922 26.0315 1.58883 27.3002 1.84829 28.577C1.90194 28.8423 2.20759 28.9559 2.42621 28.7968C2.5845 28.6816 2.75081 28.5735 2.92565 28.4751C3.72379 28.0247 4.62898 27.7867 5.54297 27.787H5.54751C5.77574 27.7872 5.95539 27.5883 5.91455 27.3634C5.75545 26.4872 5.6695 25.6234 5.6695 24.7783C5.6695 14.0338 14.3941 5.29289 25.1183 5.29289C35.8425 5.29289 44.5673 14.0338 44.5673 24.7783C44.5673 35.5261 30.8414 49.2539 25.9295 54.1022C25.4789 54.547 24.7574 54.5467 24.3068 54.1019C22.8619 52.6757 20.654 50.4803 18.2577 47.8196C18.2249 47.8164 18.1907 47.8156 18.1579 47.8121C16.2704 47.6254 14.4245 47.1823 12.6745 46.4963C12.5656 46.4538 12.4566 46.4102 12.3485 46.3655C12.0002 46.2219 11.6927 46.6429 11.9321 46.9344C15.0846 50.7718 18.5228 54.3303 21.6003 57.366C22.5704 58.3226 23.8445 58.8008 25.1183 58.8008C26.3924 58.8008 27.6665 58.3226 28.6365 57.3657C37.2872 48.8326 48.7876 36.1709 48.7876 24.7783C48.7876 11.7023 38.1697 1.06445 25.1183 1.06445Z" fill="#1A237E"/>
<path fill-rule="evenodd" clip-rule="evenodd" d="M34.9627 27.1734C34.9514 27.5058 34.9365 27.8372 34.9085 28.1618C34.8009 29.4651 34.5446 30.6806 34.0692 31.7864C33.5965 32.8941 32.8952 33.9232 32.0277 34.9382L32.0533 34.9601C30.4122 36.7894 28.3597 38.2977 26.0728 39.25C23.7929 40.2075 21.2995 40.6308 18.8904 40.3864C16.5629 40.1609 14.3345 39.3054 12.4235 37.9289C13.0092 37.9064 13.6127 37.8243 14.2318 37.6502C14.7403 37.5061 15.2589 37.2961 15.7552 36.9961C16.2511 36.6995 16.7228 36.3082 17.1136 35.8461C17.5079 35.3856 17.8125 34.8585 18.0295 34.3257C18.2417 33.7925 18.3701 33.2546 18.4376 32.739C18.507 32.2365 18.5028 31.6768 18.5014 31.3639V30.2591V28.0498V19.2137V17.0049V15.9004V15.8338L18.5025 15.8127C18.5028 15.7983 18.5022 15.7841 18.5044 15.7704C18.5057 15.7429 18.5097 15.7159 18.5134 15.6894C18.522 15.6357 18.5348 15.584 18.5532 15.5343C18.6242 15.334 18.7812 15.1527 18.9723 15.0518C19.0676 15 19.169 14.9687 19.2771 14.9564C19.3041 14.9534 19.3313 14.9499 19.3596 14.9505L19.3807 14.9494L19.4397 14.9491H19.5774H20.1287H22.3336H23.436H23.7118L23.8476 14.9494L23.9566 14.9534C24.102 14.9609 24.2464 14.9556 24.393 14.9711C25.5633 15.0452 26.7586 15.3893 27.8851 15.9119C30.1466 16.9608 32.12 18.7668 33.3944 20.9202C33.711 21.4604 33.9857 22.0212 34.2158 22.5978C34.4421 23.1758 34.6146 23.7703 34.7435 24.3717C34.8764 24.9732 34.9397 25.5864 34.9624 26.1999C34.964 26.358 34.9768 26.4981 34.9712 26.6704L34.9627 27.1734ZM39.1803 26.0582C39.1496 25.2016 39.0567 24.3439 38.8743 23.5066C38.6963 22.6684 38.455 21.845 38.1437 21.0515C37.8293 20.2599 37.4545 19.4961 37.0263 18.7665C35.2947 15.8595 32.7359 13.5151 29.6637 12.0774C28.1264 11.366 26.4508 10.8705 24.6826 10.7528C24.4632 10.7322 24.2395 10.7341 24.018 10.7255L23.8514 10.721L23.7118 10.7207H23.436H22.3336H20.1287H19.5774H19.4397L19.244 10.7236C19.0887 10.7269 18.9325 10.7394 18.7774 10.7579C18.1555 10.8312 17.5431 11.0224 16.99 11.3187C15.8812 11.9073 15.0096 12.9107 14.5836 14.0984C14.4763 14.3947 14.3975 14.7012 14.3476 15.0109C14.3233 15.1666 14.3041 15.3225 14.2942 15.4784C14.2875 15.5565 14.2851 15.6343 14.2833 15.7121L14.2809 15.9004V17.0049V19.2137V28.0498V30.2591V31.3639C14.2822 31.7867 14.2809 31.9653 14.2526 32.1937C14.2243 32.4077 14.1749 32.5901 14.1167 32.7414C14.0537 32.8891 13.9854 33.0067 13.9 33.1057C13.7355 33.299 13.4827 33.4665 13.0815 33.582C12.6865 33.697 12.1745 33.7339 11.6374 33.6916C11.0976 33.6478 10.5296 33.529 9.97491 33.345C8.86418 32.9813 7.79723 32.3641 7.00096 31.6046L6.99696 31.6005C6.34296 30.9782 5.3358 30.8258 4.50857 31.2922C3.49314 31.8656 3.13357 33.1546 3.70562 34.1722C5.18819 36.8094 7.16112 39.2867 9.70076 41.1742C10.9652 42.1167 12.3629 42.904 13.8468 43.4838C15.3297 44.065 16.895 44.438 18.4745 44.5942C21.6401 44.9125 24.8297 44.3562 27.7041 43.1495C30.5779 41.9399 33.1886 40.0871 35.2032 37.6716L35.2288 37.6938C36.2728 36.4762 37.2655 35.0569 37.9491 33.4504C38.6392 31.8469 38.9822 30.1385 39.1146 28.5103C39.1496 28.1017 39.168 27.6965 39.1813 27.2935L39.1915 26.6923C39.1973 26.4965 39.184 26.2687 39.1803 26.0582Z" fill="#1A237E"/>
</svg>
