<svg width="178" height="26" viewBox="0 0 178 26" fill="none" xmlns="http://www.w3.org/2000/svg">
<path d="M26.0632 17.0835C26.0632 22.0679 22.4362 25.7228 17.5018 25.7228C12.5675 25.7228 8.9126 22.0679 8.9126 17.0835C8.9126 12.099 12.5397 8.47198 17.5018 8.47198C20.7673 8.47198 23.3541 9.99624 24.9506 12.85L22.7978 14.085C21.6629 11.9544 19.8216 10.8196 17.5018 10.8196C14.0194 10.8196 11.4549 13.4787 11.4549 17.0835C11.4549 20.6883 14.0194 23.3474 17.5018 23.3474C20.478 23.3474 22.7978 21.3614 23.3541 18.5076L23.393 18.2906H21.2513V15.893H26.0632V17.0779V17.0835Z" fill="#002E5D"/>
<path d="M31.0476 25.5503H28.5054V8.61664H32.7888C35.014 8.61664 36.8276 10.458 36.8276 12.7277C36.8276 14.4689 35.7372 15.9709 34.213 16.5717L37.573 25.5448H34.9584L31.6929 16.8331H31.0421V25.5448L31.0476 25.5503ZM31.0476 14.4689H32.7888C33.7067 14.4689 34.4577 13.6956 34.4577 12.7277C34.4577 11.7597 33.7067 10.9865 32.7888 10.9865H31.0476V14.4689Z" fill="#002E5D"/>
<path d="M49.4112 25.5503H46.8244L46.1735 22.9858H41.4339L40.783 25.5503H38.2407L42.6188 8.61664H45.0387L49.4167 25.5503H49.4112ZM45.556 20.616L43.7981 13.4564L42.0625 20.616H45.556Z" fill="#002E5D"/>
<path d="M58.6234 8.61664H61.1657V25.5503H58.6234V17.4729L54.0283 12.3327V25.5503H51.4861V8.61664H54.0283L58.6234 13.7846V8.61664Z" fill="#002E5D"/>
<path d="M75.8516 17.0835C75.8516 21.9678 72.2468 25.5503 67.3125 25.5503H64.8926V8.61664H67.4349C72.2969 8.61664 75.8516 12.1992 75.8516 17.0835ZM73.3594 17.0835C73.3594 13.5287 70.9896 10.9364 67.7464 10.9364H67.4293V23.225H67.7464C70.9896 23.225 73.3594 20.6382 73.3594 17.0779V17.0835Z" fill="#002E5D"/>
<path d="M109.33 14.4466H114.726V16.8165H109.33V23.1805H114.993V25.5503H106.793V8.61664H114.147V10.9865H109.335V14.4466H109.33Z" fill="#002E5D"/>
<path d="M177.721 17.0835C177.721 22.0679 174.094 25.7228 169.16 25.7228C164.225 25.7228 160.57 22.0679 160.57 17.0835C160.57 12.099 164.197 8.47198 169.16 8.47198C172.425 8.47198 175.012 9.99624 176.608 12.85L174.456 14.085C173.321 11.9544 171.479 10.8196 169.16 10.8196C165.677 10.8196 163.113 13.4787 163.113 17.0835C163.113 20.6883 165.677 23.3474 169.16 23.3474C172.136 23.3474 174.456 21.3614 175.012 18.5076L175.051 18.2906H172.909V15.893H177.721V17.0779V17.0835Z" fill="#002E5D"/>
<path d="M97.959 25.5503H95.4167V8.61664H99.7002C101.925 8.61664 103.739 10.458 103.739 12.7277C103.739 14.4689 102.649 15.9709 101.124 16.5717L104.484 25.5448H101.87L98.6043 16.8331H97.9535V25.5448L97.959 25.5503ZM97.959 14.4689H99.7002C100.618 14.4689 101.369 13.6956 101.369 12.7277C101.369 11.7597 100.618 10.9865 99.7002 10.9865H97.959V14.4689Z" fill="#002E5D"/>
<path d="M155.419 8.61664H157.961V25.5503H155.419V17.4729L150.824 12.3327V25.5503H148.282V8.61664H150.824L155.419 13.7846V8.61664Z" fill="#002E5D"/>
<path d="M92.8577 17.0835C92.8577 21.9678 89.2529 25.5503 84.3186 25.5503H81.8987V8.61664H84.441C89.303 8.61664 92.8577 12.1992 92.8577 17.0835ZM90.3655 17.0835C90.3655 13.5287 87.9957 10.9364 84.7525 10.9364H84.4354V23.225H84.7525C87.9957 23.225 90.3655 20.6382 90.3655 17.0779V17.0835Z" fill="#002E5D"/>
<path d="M116.417 20.5659H118.959C118.959 22.1625 120.166 23.3474 121.813 23.3474C123.46 23.3474 124.667 22.1625 124.667 20.5659C124.667 16.4549 117.118 18.7023 117.118 12.8222C117.118 10.4747 119.221 8.46643 121.813 8.46643C123.432 8.46643 124.934 9.16737 125.779 10.5247L123.649 11.8821C123.237 11.2312 122.536 10.8418 121.813 10.8418C120.556 10.8418 119.638 11.6373 119.638 12.8278C119.638 16.5049 127.187 14.2575 127.187 20.5715C127.187 23.4753 124.767 25.7228 121.819 25.7228C118.87 25.7228 116.423 23.3975 116.423 20.5715L116.417 20.5659Z" fill="#002E5D"/>
<path d="M128.299 20.5659H130.842C130.842 22.1625 132.049 23.3474 133.695 23.3474C135.342 23.3474 136.549 22.1625 136.549 20.5659C136.549 16.4549 129 18.7023 129 12.8222C129 10.4747 131.103 8.46643 133.695 8.46643C135.314 8.46643 136.816 9.16737 137.662 10.5247L135.531 11.8821C135.12 11.2312 134.419 10.8418 133.695 10.8418C132.438 10.8418 131.52 11.6373 131.52 12.8278C131.52 16.5049 139.069 14.2575 139.069 20.5715C139.069 23.4753 136.649 25.7228 133.701 25.7228C130.753 25.7228 128.305 23.3975 128.305 20.5715L128.299 20.5659Z" fill="#002E5D"/>
<path d="M141.723 23.1805V10.9865H140.85V8.61664H145.155V10.9865H144.26V23.1805H145.155V25.5503H140.85V23.1805H141.723Z" fill="#002E5D"/>
<path d="M8.91255 17.9902C13.6808 17.9902 17.5463 14.1248 17.5463 9.3565C17.5463 4.58823 13.6808 0.722778 8.91255 0.722778C4.14427 0.722778 0.278809 4.58823 0.278809 9.3565C0.278809 14.1248 4.14427 17.9902 8.91255 17.9902Z" fill="#FFC73C"/>
<path d="M8.60664 11.7375V12.6609H5.35229V6.05768H6.3425V11.7375H8.60664Z" fill="#002E5D"/>
<path d="M10.2646 8.33293H12.3674V9.25639H10.2646V11.7375H12.4731V12.6609H9.27441V6.05768H12.1393V6.98113H10.2646V8.32736V8.33293Z" fill="#002E5D"/>
</svg>
