<svg width="40" height="50" viewBox="0 0 40 50" fill="none" xmlns="http://www.w3.org/2000/svg">
<path d="M5.21163 19.1689C7.68801 18.7613 9.03876 19.8193 8.83165 22.3765L8.21706 30.0835C8.01444 32.6585 6.45207 34.1776 3.96219 34.5875L0.132812 35.2201L1.38451 19.8015L5.21163 19.1689ZM3.81136 31.5915L4.19407 31.5291C4.59929 31.4623 4.75913 31.2396 4.80191 30.7117L5.43676 22.871C5.47728 22.3208 5.36472 22.1649 4.9595 22.2317L4.55427 22.2985L3.81136 31.5915Z" fill="#1A237E"/>
<path d="M15.9347 17.375L15.9639 32.6042L12.56 33.1678L12.6794 29.6951L11.8914 29.8243L11.4547 33.3526L8.05078 33.914L10.6172 18.266L15.9347 17.375ZM12.7627 26.6591L12.8707 23.9037L12.6456 23.9416L12.2719 26.7304L12.7627 26.6591Z" fill="#1A237E"/>
<path d="M25.5989 15.8145L24.3697 31.2285L20.6664 31.8389L19.8875 22.8622L19.6961 22.8956L19.7186 31.9881L16.3125 32.5494L17.5642 17.1309L21.245 16.5228L22.0982 25.5529L22.2896 25.5218L22.195 16.3646L25.5989 15.8145Z" fill="#1A237E"/>
<path d="M28.5409 27.0107C28.5116 27.4918 28.6579 27.7079 28.9776 27.6522C29.2973 27.5965 29.5134 27.3248 29.5404 26.8436L29.8489 23.1215L33.2753 22.5558L33.0006 26.0128C32.7755 28.5922 31.1996 30.3073 28.6917 30.7217C26.2153 31.1293 24.9726 29.9242 25.1685 27.3047L25.7966 19.5531C26.0217 16.9292 27.5121 15.292 29.9817 14.8754C32.4941 14.4611 33.8088 15.6996 33.6062 18.2545L33.3225 21.7405L29.9186 22.3041L30.2158 18.582C30.2608 18.0741 30.0942 17.8625 29.7768 17.9137C29.4594 17.9649 29.2658 18.2567 29.2163 18.7446L28.5409 27.0107Z" fill="#1A237E"/>
<path d="M37.5588 16.8506L37.3337 19.5814L39.3756 19.2429L39.1505 22.3034L37.1086 22.6398L36.8182 26.1436L38.9051 25.8005L38.68 28.8588L33.1914 29.7654L34.4183 14.3513L39.8889 13.4492L39.6638 16.5098L37.5588 16.8506Z" fill="#1A237E"/>
<path d="M11.417 34.0215L10.422 46.3795L12.5156 46.0365L12.2613 49.097L6.79297 49.9991L8.01315 34.5828L11.417 34.0215Z" fill="#1A237E"/>
<path d="M20.3295 32.5215L20.361 47.7507L16.9549 48.312L17.0742 44.8394L16.2862 44.9686L15.8495 48.4947L12.4434 49.0582L15.0098 33.4125L20.3295 32.5215ZM17.1575 41.8123L17.2655 39.0569L17.0404 39.0947L16.678 41.8924L17.1575 41.8123Z" fill="#1A237E"/>
<path d="M25.7156 31.6632C28.2258 31.2489 29.5428 32.356 29.3447 34.8017V34.9109C29.1781 37.1762 27.9219 38.5572 26.911 38.7889L26.8863 39.0317C27.8926 38.9092 29.1803 40.0675 29.0092 42.3105L28.9867 42.5756C28.7773 44.979 27.1092 46.6452 24.5135 47.0751L20.7246 47.6988L21.9538 32.2847L25.7156 31.6632ZM24.3649 44.0791L24.7251 44.019C25.1933 43.941 25.3532 43.7183 25.4005 43.148L25.54 41.3661C25.5783 40.8159 25.4657 40.66 24.9975 40.7379L24.6373 40.7981L24.3649 44.0791ZM24.8782 37.7331L25.1978 37.6796C25.6481 37.6061 25.7832 37.3878 25.8214 36.8376L25.9475 35.3608C25.9858 34.8106 25.8912 34.6324 25.4657 34.6926L25.1033 34.7527L24.8782 37.7331Z" fill="#1A237E"/>
<path d="M16.0305 2.14105L15.7288 10.9618L15.9539 10.924L17.0795 1.96954L21.2421 1.28125L20.0467 16.0249L17.075 16.5149L18.1421 7.63176L17.9395 7.66518L16.3861 16.6307L14.3308 16.9693L14.1957 8.28219L13.9706 8.31783L13.6396 17.0829L10.668 17.573L11.8386 2.83157L16.0305 2.14105Z" fill="#1A237E"/>
<path d="M24.8432 0.68606L24.6946 6.68241L24.9197 6.64677L25.7392 0.54573L28.9945 0L26.0229 11.046L25.6942 15.0911L22.4479 15.6279L22.7743 11.5828L21.5879 1.22288L24.8432 0.68606Z" fill="#1A237E"/>
</svg>
