<svg width="74" height="74" viewBox="0 0 74 74" fill="none" xmlns="http://www.w3.org/2000/svg">
<g clip-path="url(#clip0_2941_32)">
<mask id="mask0_2941_32" style="mask-type:luminance" maskUnits="userSpaceOnUse" x="0" y="0" width="74" height="74">
<path d="M74 0H0V74H74V0Z" fill="white"/>
</mask>
<g mask="url(#mask0_2941_32)">
<path d="M2 4C3.10457 4 4 3.10457 4 2C4 0.89543 3.10457 0 2 0C0.89543 0 0 0.89543 0 2C0 3.10457 0.89543 4 2 4Z" fill="#26B8B3"/>
<path d="M16 4C17.1046 4 18 3.10457 18 2C18 0.89543 17.1046 0 16 0C14.8954 0 14 0.89543 14 2C14 3.10457 14.8954 4 16 4Z" fill="#26B8B3"/>
<path d="M30 4C31.1046 4 32 3.10457 32 2C32 0.89543 31.1046 0 30 0C28.8954 0 28 0.89543 28 2C28 3.10457 28.8954 4 30 4Z" fill="#26B8B3"/>
<path d="M44 4C45.1046 4 46 3.10457 46 2C46 0.89543 45.1046 0 44 0C42.8954 0 42 0.89543 42 2C42 3.10457 42.8954 4 44 4Z" fill="#26B8B3"/>
<path d="M58 4C59.1046 4 60 3.10457 60 2C60 0.89543 59.1046 0 58 0C56.8954 0 56 0.89543 56 2C56 3.10457 56.8954 4 58 4Z" fill="#26B8B3"/>
<path d="M72 4C73.1046 4 74 3.10457 74 2C74 0.89543 73.1046 0 72 0C70.8954 0 70 0.89543 70 2C70 3.10457 70.8954 4 72 4Z" fill="#26B8B3"/>
<path d="M2 18C3.10457 18 4 17.1046 4 16C4 14.8954 3.10457 14 2 14C0.89543 14 0 14.8954 0 16C0 17.1046 0.89543 18 2 18Z" fill="#26B8B3"/>
<path d="M16 18C17.1046 18 18 17.1046 18 16C18 14.8954 17.1046 14 16 14C14.8954 14 14 14.8954 14 16C14 17.1046 14.8954 18 16 18Z" fill="#26B8B3"/>
<path d="M30 18C31.1046 18 32 17.1046 32 16C32 14.8954 31.1046 14 30 14C28.8954 14 28 14.8954 28 16C28 17.1046 28.8954 18 30 18Z" fill="#26B8B3"/>
<path d="M44 18C45.1046 18 46 17.1046 46 16C46 14.8954 45.1046 14 44 14C42.8954 14 42 14.8954 42 16C42 17.1046 42.8954 18 44 18Z" fill="#26B8B3"/>
<path d="M58 18C59.1046 18 60 17.1046 60 16C60 14.8954 59.1046 14 58 14C56.8954 14 56 14.8954 56 16C56 17.1046 56.8954 18 58 18Z" fill="#26B8B3"/>
<path d="M72 18C73.1046 18 74 17.1046 74 16C74 14.8954 73.1046 14 72 14C70.8954 14 70 14.8954 70 16C70 17.1046 70.8954 18 72 18Z" fill="#26B8B3"/>
<path d="M2 32C3.10457 32 4 31.1046 4 30C4 28.8954 3.10457 28 2 28C0.89543 28 0 28.8954 0 30C0 31.1046 0.89543 32 2 32Z" fill="#26B8B3"/>
<path d="M16 32C17.1046 32 18 31.1046 18 30C18 28.8954 17.1046 28 16 28C14.8954 28 14 28.8954 14 30C14 31.1046 14.8954 32 16 32Z" fill="#26B8B3"/>
<path d="M30 32C31.1046 32 32 31.1046 32 30C32 28.8954 31.1046 28 30 28C28.8954 28 28 28.8954 28 30C28 31.1046 28.8954 32 30 32Z" fill="#26B8B3"/>
<path d="M44 32C45.1046 32 46 31.1046 46 30C46 28.8954 45.1046 28 44 28C42.8954 28 42 28.8954 42 30C42 31.1046 42.8954 32 44 32Z" fill="#26B8B3"/>
<path d="M58 32C59.1046 32 60 31.1046 60 30C60 28.8954 59.1046 28 58 28C56.8954 28 56 28.8954 56 30C56 31.1046 56.8954 32 58 32Z" fill="#26B8B3"/>
<path d="M72 32C73.1046 32 74 31.1046 74 30C74 28.8954 73.1046 28 72 28C70.8954 28 70 28.8954 70 30C70 31.1046 70.8954 32 72 32Z" fill="#26B8B3"/>
<path d="M2 46C3.10457 46 4 45.1046 4 44C4 42.8954 3.10457 42 2 42C0.89543 42 0 42.8954 0 44C0 45.1046 0.89543 46 2 46Z" fill="#26B8B3"/>
<path d="M16 46C17.1046 46 18 45.1046 18 44C18 42.8954 17.1046 42 16 42C14.8954 42 14 42.8954 14 44C14 45.1046 14.8954 46 16 46Z" fill="#26B8B3"/>
<path d="M30 46C31.1046 46 32 45.1046 32 44C32 42.8954 31.1046 42 30 42C28.8954 42 28 42.8954 28 44C28 45.1046 28.8954 46 30 46Z" fill="#26B8B3"/>
<path d="M44 46C45.1046 46 46 45.1046 46 44C46 42.8954 45.1046 42 44 42C42.8954 42 42 42.8954 42 44C42 45.1046 42.8954 46 44 46Z" fill="#26B8B3"/>
<path d="M58 46C59.1046 46 60 45.1046 60 44C60 42.8954 59.1046 42 58 42C56.8954 42 56 42.8954 56 44C56 45.1046 56.8954 46 58 46Z" fill="#26B8B3"/>
<path d="M72 46C73.1046 46 74 45.1046 74 44C74 42.8954 73.1046 42 72 42C70.8954 42 70 42.8954 70 44C70 45.1046 70.8954 46 72 46Z" fill="#26B8B3"/>
<path d="M2 60C3.10457 60 4 59.1046 4 58C4 56.8954 3.10457 56 2 56C0.89543 56 0 56.8954 0 58C0 59.1046 0.89543 60 2 60Z" fill="#26B8B3"/>
<path d="M16 60C17.1046 60 18 59.1046 18 58C18 56.8954 17.1046 56 16 56C14.8954 56 14 56.8954 14 58C14 59.1046 14.8954 60 16 60Z" fill="#26B8B3"/>
<path d="M30 60C31.1046 60 32 59.1046 32 58C32 56.8954 31.1046 56 30 56C28.8954 56 28 56.8954 28 58C28 59.1046 28.8954 60 30 60Z" fill="#26B8B3"/>
<path d="M44 60C45.1046 60 46 59.1046 46 58C46 56.8954 45.1046 56 44 56C42.8954 56 42 56.8954 42 58C42 59.1046 42.8954 60 44 60Z" fill="#26B8B3"/>
<path d="M58 60C59.1046 60 60 59.1046 60 58C60 56.8954 59.1046 56 58 56C56.8954 56 56 56.8954 56 58C56 59.1046 56.8954 60 58 60Z" fill="#26B8B3"/>
<path d="M72 60C73.1046 60 74 59.1046 74 58C74 56.8954 73.1046 56 72 56C70.8954 56 70 56.8954 70 58C70 59.1046 70.8954 60 72 60Z" fill="#26B8B3"/>
<path d="M2 74C3.10457 74 4 73.1046 4 72C4 70.8954 3.10457 70 2 70C0.89543 70 0 70.8954 0 72C0 73.1046 0.89543 74 2 74Z" fill="#26B8B3"/>
<path d="M16 74C17.1046 74 18 73.1046 18 72C18 70.8954 17.1046 70 16 70C14.8954 70 14 70.8954 14 72C14 73.1046 14.8954 74 16 74Z" fill="#26B8B3"/>
<path d="M30 74C31.1046 74 32 73.1046 32 72C32 70.8954 31.1046 70 30 70C28.8954 70 28 70.8954 28 72C28 73.1046 28.8954 74 30 74Z" fill="#26B8B3"/>
<path d="M44 74C45.1046 74 46 73.1046 46 72C46 70.8954 45.1046 70 44 70C42.8954 70 42 70.8954 42 72C42 73.1046 42.8954 74 44 74Z" fill="#26B8B3"/>
<path d="M58 74C59.1046 74 60 73.1046 60 72C60 70.8954 59.1046 70 58 70C56.8954 70 56 70.8954 56 72C56 73.1046 56.8954 74 58 74Z" fill="#26B8B3"/>
<path d="M72 74C73.1046 74 74 73.1046 74 72C74 70.8954 73.1046 70 72 70C70.8954 70 70 70.8954 70 72C70 73.1046 70.8954 74 72 74Z" fill="#26B8B3"/>
</g>
</g>
<defs>
<clipPath id="clip0_2941_32">
<rect width="74" height="74" fill="white"/>
</clipPath>
</defs>
</svg>
